name Walk7.mot
datacolumns 19
datarows 12
range 1.16000000 1.21500000
endheader

                time	   L_ground_force_vx	   L_ground_force_vy	   L_ground_force_vz	   L_ground_force_px	   L_ground_force_py	   L_ground_force_pz	   R_ground_force_vx	   R_ground_force_vy	   R_ground_force_vz	   R_ground_force_px	   R_ground_force_py	   R_ground_force_pz	   L_ground_torque_x	   L_ground_torque_y	   L_ground_torque_z	   R_ground_torque_x	   R_ground_torque_y	   R_ground_torque_z	
          1.16000000	         44.08242238	        534.76458536	         26.54181470	         -0.22174977	          0.00000000	         -0.03630895	         -0.03223729	          0.62711220	          0.05700342	          0.00046876	          0.00000000	          0.00009874	          0.00000000	          0.09380437	          0.00000000	          0.00000000	          0.00152682	          0.00000000	
          1.16500000	         47.93040017	        546.83942310	         27.35287513	         -0.22129832	          0.00000000	         -0.03621898	         -0.04818984	          0.63536399	          0.05273904	          0.00043642	          0.00000000	          0.00009110	          0.00000000	          0.06458514	          0.00000000	          0.00000000	          0.00486222	          0.00000000	
          1.17000000	         51.83217693	        558.57902742	         28.12103215	         -0.22081798	          0.00000000	         -0.03612181	         -0.06712276	          0.56987344	          0.03958505	          0.00033218	          0.00000000	          0.00006794	          0.00000000	          0.03820570	          0.00000000	          0.00000000	          0.00946374	          0.00000000	
          1.17500000	         55.79184434	        569.88686700	         28.83019206	         -0.22030767	          0.00000000	         -0.03601259	         -0.08836826	          0.39746741	          0.01419104	          0.00012865	          0.00000000	          0.00002346	          0.00000000	          0.01586393	          0.00000000	          0.00000000	          0.01547210	          0.00000000	
          1.18000000	         59.81394662	        580.66086239	         29.46281236	         -0.21976624	          0.00000000	         -0.03588570	         -0.11059976	          0.07960206	         -0.02715802	         -0.00020459	          0.00000000	         -0.00004881	          0.00000000	         -0.00108967	          0.00000000	          0.00000000	          0.02293328	          0.00000000	
          1.18500000	         63.90158268	        590.79011144	         29.99983007	         -0.21919288	          0.00000000	         -0.03573656	         -0.13162707	         -0.42588789	         -0.08828755	         -0.00069900	          0.00000000	         -0.00015547	          0.00000000	         -0.01147915	          0.00000000	          0.00000000	          0.03173977	          0.00000000	
          1.19000000	         68.05605094	        600.15436520	         30.41967667	         -0.21858555	          0.00000000	         -0.03556135	         -0.14818331	         -1.16161472	         -0.17272338	         -0.00138377	          0.00000000	         -0.00030263	          0.00000000	         -0.01487566	          0.00000000	          0.00000000	          0.04155802	          0.00000000	
          1.19500000	         72.27382167	        608.62789614	         30.69764101	         -0.21794088	          0.00000000	         -0.03535658	         -0.15572561	         -2.16563251	         -0.28308925	         -0.00228093	          0.00000000	         -0.00049478	          0.00000000	         -0.01118823	          0.00000000	          0.00000000	          0.05174314	          0.00000000	
          1.20000000	         76.54514692	        616.08321201	         30.80683587	         -0.21725438	          0.00000000	         -0.03511765	         -0.14828158	         -3.46419418	         -0.42027870	         -0.00339865	          0.00000000	         -0.00073340	          0.00000000	         -0.00063643	          0.00000000	          0.00000000	          0.06124423	          0.00000000	
          1.20500000	         80.85332235	        622.39625176	         30.71959488	         -0.21652007	          0.00000000	         -0.03483952	         -0.11838624	         -5.06191247	         -0.58237697	         -0.00472244	          0.00000000	         -0.00101505	          0.00000000	          0.01670656	          0.00000000	          0.00000000	          0.06850689	          0.00000000	
          1.21000000	         85.17663766	        627.44915761	         30.41102575	         -0.21573195	          0.00000000	         -0.03451692	         -0.05716769	         -6.92908602	         -0.76332630	         -0.00620432	          0.00000000	         -0.00132906	          0.00000000	          0.04032462	          0.00000000	          0.00000000	          0.07138332	          0.00000000	
          1.21500000	         89.48965412	        631.13088972	         29.86106095	         -0.21488593	          0.00000000	         -0.03414392	          0.04534565	         -8.98616769	         -0.95135544	         -0.00774997	          0.00000000	         -0.00165481	          0.00000000	          0.06951198	          0.00000000	          0.00000000	          0.06706520	          0.00000000	
